PathFileType	4	(X/Y/Z)	C:/Users/dbak576/Desktop/Duncan Bakke Modelling Files/H22s1/Static_H22s1.trc	
DataRate	CameraRate	NumFrames	NumMarkers	Units	OrigDataRate	OrigDataStartFrame	OrigNumFrames	
200.00	200.00	2	240	mm	200.00	265	37	
Frame#	Time	LFEO			LFEA			LFEL			LFEP			LTIO			LTIA			LTIL			LTIP			PELO			PELA			PELL			PELP			RFEO			RFEA			RFEL			RFEP			RTIO			RTIA			RTIL			RTIP			LFHD			RFHD			LBHD			RBHD			C7			T10			CLAV			STRN			RBack			LASI			RASI			LPSI			RPSI			RACR1			RUA1			RElbow			RElbowM			RFA1			RWRR			RWRU			RCAR			LACR1			LUA1			LElbow			LElbowM			LFA1			LWRR			LWRU			LCAR			RTH1			RTH3			RTH2			RTH4			RLFC			RMFC			RTB1			RTB3			RTB2			RTB4			RLMAL			RMMAL			RCAL			RMT1			RMT5			RToe			LTH1			LTH3			LTH2			LTH4			LLFC			LMFC			LTB1			LTB3			LTB2			LTB4			LLMAL			LMMAL			LCAL			LMT1			LMT5			LToe			CX			LAJC			LFEM1			LFEM10			LFEM11			LFEM12			LFEM13			LFEM14			LFEM15			LFEM16			LFEM2			LFEM3			LFEM4			LFEM5			LFEM6			LFEM7			LFEM8			LFEM9			LFOO1			LFOO2			LFOO3			LFOO4			LFOO5			LFOO6			LHJC			LIC			LIP			LIS			LIT			LKJC			LSI			LTIB1			LTIB10			LTIB11			LTIB12			LTIB13			LTIB14			LTIB15			LTIB16			LTIB2			LTIB3			LTIB4			LTIB5			LTIB6			LTIB7			LTIB8			LTIB9			LeftThighOrigin			LeftTibOrigin			LowerBodyModelVer			LowerTorsoOrigin			MidHJC			MidPelvis			OAnatomy			OCalRig			OHead			OLeftFemur			OLeftFoot			OLeftTibia			OPelvis			ORightFemur			ORightFoot			ORightTibia			OThorax			Oglobal			PELOrigin			RAJC			RFEM1			RFEM10			RFEM11			RFEM12			RFEM13			RFEM14			RFEM15			RFEM16			RFEM2			RFEM3			RFEM4			RFEM5			RFEM6			RFEM7			RFEM8			RFEM9			RFOO1			RFOO2			RFOO3			RFOO4			RFOO5			RFOO6			RHJC			RIC			RIP			RIS			RIT			RKJC			RSI			RTIB1			RTIB10			RTIB11			RTIB12			RTIB13			RTIB14			RTIB15			RTIB16			RTIB2			RTIB3			RTIB4			RTIB5			RTIB6			RTIB7			RTIB8			RTIB9			RightThighOrigin			RightTibOrigin			SACR			SP			ThoraxOrigin			XAnatomy			XCalRig			XHead			XLeftFemur			XLeftFoot			XLeftTibia			XPelvis			XRightFemur			XRightFoot			XRightTibia			XThorax			Xglobal			YAnatomy			YCalRig			YHead			YLeftFemur			YLeftFoot			YLeftTibia			YPelvis			YRightFemur			YRightFoot			YRightTibia			YThorax			Yglobal			ZAnatomy			ZCalRig			ZHead			ZLeftFemur			ZLeftFoot			ZLeftTibia			ZPelvis			ZRightFemur			ZRightFoot			ZRightTibia			ZThorax			Zglobal			avPEL			avTHOR			newLfootmid			newLfootside			newRfootmid			newRfootside			
		X1	Y1	Z1	X2	Y2	Z2	X3	Y3	Z3	X4	Y4	Z4	X5	Y5	Z5	X6	Y6	Z6	X7	Y7	Z7	X8	Y8	Z8	X9	Y9	Z9	X10	Y10	Z10	X11	Y11	Z11	X12	Y12	Z12	X13	Y13	Z13	X14	Y14	Z14	X15	Y15	Z15	X16	Y16	Z16	X17	Y17	Z17	X18	Y18	Z18	X19	Y19	Z19	X20	Y20	Z20	X21	Y21	Z21	X22	Y22	Z22	X23	Y23	Z23	X24	Y24	Z24	X25	Y25	Z25	X26	Y26	Z26	X27	Y27	Z27	X28	Y28	Z28	X29	Y29	Z29	X30	Y30	Z30	X31	Y31	Z31	X32	Y32	Z32	X33	Y33	Z33	X34	Y34	Z34	X35	Y35	Z35	X36	Y36	Z36	X37	Y37	Z37	X38	Y38	Z38	X39	Y39	Z39	X40	Y40	Z40	X41	Y41	Z41	X42	Y42	Z42	X43	Y43	Z43	X44	Y44	Z44	X45	Y45	Z45	X46	Y46	Z46	X47	Y47	Z47	X48	Y48	Z48	X49	Y49	Z49	X50	Y50	Z50	X51	Y51	Z51	X52	Y52	Z52	X53	Y53	Z53	X54	Y54	Z54	X55	Y55	Z55	X56	Y56	Z56	X57	Y57	Z57	X58	Y58	Z58	X59	Y59	Z59	X60	Y60	Z60	X61	Y61	Z61	X62	Y62	Z62	X63	Y63	Z63	X64	Y64	Z64	X65	Y65	Z65	X66	Y66	Z66	X67	Y67	Z67	X68	Y68	Z68	X69	Y69	Z69	X70	Y70	Z70	X71	Y71	Z71	X72	Y72	Z72	X73	Y73	Z73	X74	Y74	Z74	X75	Y75	Z75	X76	Y76	Z76	X77	Y77	Z77	X78	Y78	Z78	X79	Y79	Z79	X80	Y80	Z80	X81	Y81	Z81	X82	Y82	Z82	X83	Y83	Z83	X84	Y84	Z84	X85	Y85	Z85	X86	Y86	Z86	X87	Y87	Z87	X88	Y88	Z88	X89	Y89	Z89	X90	Y90	Z90	X91	Y91	Z91	X92	Y92	Z92	X93	Y93	Z93	X94	Y94	Z94	X95	Y95	Z95	X96	Y96	Z96	X97	Y97	Z97	X98	Y98	Z98	X99	Y99	Z99	X100	Y100	Z100	X101	Y101	Z101	X102	Y102	Z102	X103	Y103	Z103	X104	Y104	Z104	X105	Y105	Z105	X106	Y106	Z106	X107	Y107	Z107	X108	Y108	Z108	X109	Y109	Z109	X110	Y110	Z110	X111	Y111	Z111	X112	Y112	Z112	X113	Y113	Z113	X114	Y114	Z114	X115	Y115	Z115	X116	Y116	Z116	X117	Y117	Z117	X118	Y118	Z118	X119	Y119	Z119	X120	Y120	Z120	X121	Y121	Z121	X122	Y122	Z122	X123	Y123	Z123	X124	Y124	Z124	X125	Y125	Z125	X126	Y126	Z126	X127	Y127	Z127	X128	Y128	Z128	X129	Y129	Z129	X130	Y130	Z130	X131	Y131	Z131	X132	Y132	Z132	X133	Y133	Z133	X134	Y134	Z134	X135	Y135	Z135	X136	Y136	Z136	X137	Y137	Z137	X138	Y138	Z138	X139	Y139	Z139	X140	Y140	Z140	X141	Y141	Z141	X142	Y142	Z142	X143	Y143	Z143	X144	Y144	Z144	X145	Y145	Z145	X146	Y146	Z146	X147	Y147	Z147	X148	Y148	Z148	X149	Y149	Z149	X150	Y150	Z150	X151	Y151	Z151	X152	Y152	Z152	X153	Y153	Z153	X154	Y154	Z154	X155	Y155	Z155	X156	Y156	Z156	X157	Y157	Z157	X158	Y158	Z158	X159	Y159	Z159	X160	Y160	Z160	X161	Y161	Z161	X162	Y162	Z162	X163	Y163	Z163	X164	Y164	Z164	X165	Y165	Z165	X166	Y166	Z166	X167	Y167	Z167	X168	Y168	Z168	X169	Y169	Z169	X170	Y170	Z170	X171	Y171	Z171	X172	Y172	Z172	X173	Y173	Z173	X174	Y174	Z174	X175	Y175	Z175	X176	Y176	Z176	X177	Y177	Z177	X178	Y178	Z178	X179	Y179	Z179	X180	Y180	Z180	X181	Y181	Z181	X182	Y182	Z182	X183	Y183	Z183	X184	Y184	Z184	X185	Y185	Z185	X186	Y186	Z186	X187	Y187	Z187	X188	Y188	Z188	X189	Y189	Z189	X190	Y190	Z190	X191	Y191	Z191	X192	Y192	Z192	X193	Y193	Z193	X194	Y194	Z194	X195	Y195	Z195	X196	Y196	Z196	X197	Y197	Z197	X198	Y198	Z198	X199	Y199	Z199	X200	Y200	Z200	X201	Y201	Z201	X202	Y202	Z202	X203	Y203	Z203	X204	Y204	Z204	X205	Y205	Z205	X206	Y206	Z206	X207	Y207	Z207	X208	Y208	Z208	X209	Y209	Z209	X210	Y210	Z210	X211	Y211	Z211	X212	Y212	Z212	X213	Y213	Z213	X214	Y214	Z214	X215	Y215	Z215	X216	Y216	Z216	X217	Y217	Z217	X218	Y218	Z218	X219	Y219	Z219	X220	Y220	Z220	X221	Y221	Z221	X222	Y222	Z222	X223	Y223	Z223	X224	Y224	Z224	X225	Y225	Z225	X226	Y226	Z226	X227	Y227	Z227	X228	Y228	Z228	X229	Y229	Z229	X230	Y230	Z230	X231	Y231	Z231	X232	Y232	Z232	X233	Y233	Z233	X234	Y234	Z234	X235	Y235	Z235	X236	Y236	Z236	X237	Y237	Z237	X238	Y238	Z238	X239	Y239	Z239	X240	Y240	Z240	

10	0.045	-97.02525	-462.35992	458.04877	220.95078	-462.47479	449.25339	-97.16579	-144.39630	448.81534	-88.23025	-453.12613	775.89075	-156.25439	-481.22147	71.62647	192.95215	-481.85886	25.55416	-164.77449	-124.04950	2.10694	-109.41029	-411.18488	425.71387	-6.41851	-370.92844	882.27643	231.76431	-370.98236	881.62848	-6.37514	-172.44284	881.69940	-5.87842	-370.35153	1080.76123	122.67462	-459.99435	457.75085	456.63800	-459.98682	457.89590	122.66702	-126.03098	457.91208	122.52957	-460.15558	791.71411	172.91028	-462.54742	68.84579	533.77783	-462.49866	121.41321	165.99707	-100.99472	115.96855	120.79941	-510.17456	426.62341	-51.16683	-419.30380	1531.70337	26.63298	-419.53461	1535.84924	-82.25446	-582.98499	1481.83850	40.52539	-590.84827	1479.59204	-14.42029	-574.50946	1345.75293	-7.71652	-566.39294	1081.42395	-12.30766	-433.12161	1298.23389	-13.13116	-360.04611	1196.21497	132.50967	-561.00598	1258.01929	-160.68352	-381.61441	870.69818	147.84650	-360.24240	893.85455	-37.09189	-579.16968	898.58105	57.40242	-582.88715	901.43878	121.64514	-483.90503	1326.03516	257.75748	-431.01578	1310.90759	381.76407	-372.47739	1277.20300	356.94138	-289.01001	1230.87134	484.31619	-306.87781	1265.55115	568.39056	-243.58411	1348.78162	577.26056	-228.81491	1277.63501	624.42853	-235.34254	1314.66541	-165.11711	-481.63315	1312.79651	-292.92905	-397.40326	1275.21509	-365.16299	-309.06491	1242.03564	-335.20978	-254.23729	1213.78821	-462.83130	-238.40677	1250.82898	-549.22473	-138.06117	1322.73108	-557.91101	-149.97498	1250.85266	-605.29681	-128.69200	1288.99414	230.89497	-440.29138	744.55914	203.28102	-459.19037	562.07379	185.32275	-379.25940	654.74451	215.72714	-450.33176	655.93213	200.53009	-451.42914	465.66928	44.81914	-468.55948	449.83237	138.67412	-427.35370	332.70374	166.03127	-430.28622	149.10071	219.28615	-463.74533	251.37733	154.78922	-435.00357	240.73793	216.41019	-466.87891	70.20492	137.13904	-458.99075	68.56913	191.51854	-521.44373	40.28654	164.61720	-365.17368	45.97955	220.18237	-387.83575	37.11946	175.82790	-306.92709	27.57100	-200.43855	-413.19788	759.14801	-174.50182	-425.70663	570.84637	-145.09544	-355.76285	669.84412	-187.80530	-415.92505	665.31439	-177.13661	-466.16489	466.24252	-16.91386	-458.55493	449.85495	-123.53554	-430.17255	347.37656	-140.44214	-441.35669	166.01114	-194.00912	-479.02094	265.87128	-130.88408	-444.50204	256.42572	-188.75723	-494.19879	71.37060	-116.56800	-465.36078	70.71981	-147.65051	-533.03314	33.61766	-150.34132	-377.97241	51.10008	-204.29086	-404.16882	33.98007	-159.31070	-321.38492	25.08783	19.32280	-613.10022	762.81604	-152.66261	-479.77979	71.04520	-92.47334	-451.82953	776.00305	-86.91134	-461.39587	496.06094	-95.97707	-471.38962	496.33075	-105.97231	-462.32159	496.36447	-97.79983	-446.47513	457.85199	-71.61060	-461.12564	457.64401	-95.08712	-493.79538	483.88489	-119.26305	-463.43991	458.40286	-89.08391	-458.11270	769.67053	-91.85367	-464.53738	776.16046	-95.24310	-458.25421	782.49304	-105.96760	-449.81265	734.82178	-95.97236	-458.88068	734.78809	-105.03809	-468.87442	735.05792	-124.22350	-459.97690	757.50568	-96.90658	-452.32785	496.09464	-123.12128	-319.30176	17.22896	-211.67958	-382.97147	-13.29723	-154.69478	-547.34387	-17.73378	-111.16154	-539.02063	-5.42199	-155.96344	-553.55585	76.88547	-165.35495	-508.61346	79.71012	-92.16350	-458.18344	776.08179	-118.19386	-505.82874	938.42645	-72.00467	-467.11267	806.48779	-165.96643	-420.70633	873.32458	-67.53104	-464.21271	744.20581	-97.02524	-462.35992	458.04874	-27.97242	-643.50330	901.81879	-109.74943	-433.63364	450.66925	-130.75981	-471.97089	146.70212	-137.18085	-487.19882	148.31068	-163.08580	-484.94568	151.93349	-161.61319	-441.69446	110.19630	-114.51934	-464.66656	80.71273	-139.84172	-496.20947	109.52018	-188.58040	-494.19623	76.85782	-55.30173	-462.48080	452.05582	-91.21951	-476.89725	457.86844	-127.13729	-491.31369	463.68106	-112.50700	-454.94089	380.78326	-97.37738	-461.51895	378.90424	-103.79842	-476.74689	380.51282	-126.11160	-473.05209	383.55435	-145.88943	-465.39279	148.58113	-173.34528	-398.22244	666.61285	-152.66226	-450.18338	259.75299	24.00000	2.00000	2006.00000	1.86838	-475.97839	891.14313	6.56610	-451.34442	783.49182	1.86838	-475.97839	891.14313	0.00000	0.00000	0.00000	0.00000	0.00000	0.00000	-16.56573	-503.16791	1507.24585	-97.02524	-462.35992	458.04874	-147.65051	-533.03314	33.61766	-152.66261	-479.77979	71.04520	-6.41851	-370.92841	882.27637	122.67461	-459.99432	457.75082	191.51854	-521.44373	40.28654	176.77461	-462.93481	69.38702	-13.36398	-503.81555	1321.99341	0.00000	0.00000	0.00000	-6.41851	-370.92841	882.27637	176.77461	-462.93481	69.38702	104.60092	-437.87128	790.55719	110.63824	-459.20218	497.25943	121.63132	-468.08676	498.24597	130.54005	-457.06909	498.19846	120.93765	-443.40909	456.88913	96.13888	-462.83844	456.49881	124.75822	-491.92563	486.12628	145.89339	-457.50571	458.84634	102.32632	-445.17065	784.08234	105.99049	-451.13947	791.24652	101.63116	-444.55112	797.40839	119.78065	-435.14575	747.70123	110.87193	-446.16342	747.74872	121.86501	-455.04800	748.73523	139.50812	-441.87955	772.47784	119.54697	-448.18451	497.21194	128.86496	-318.30051	5.43726	230.85416	-364.78107	-10.87251	207.07898	-537.16394	-8.84023	161.62614	-536.94922	-1.76958	198.48932	-537.93463	85.59824	198.76900	-491.93726	85.99905	105.29571	-444.50537	790.90186	113.20366	-489.79971	955.79376	82.26034	-456.42667	818.06598	157.99008	-398.26572	897.63873	86.73396	-453.52670	755.78400	122.67461	-459.99432	457.75082	49.16009	-638.16028	907.60791	126.85880	-428.83749	450.17935	154.36159	-461.18445	145.43605	164.79129	-474.05258	146.98636	189.14067	-464.67130	150.30725	175.24234	-423.62128	108.46814	135.96719	-458.94290	79.50912	169.42575	-482.15054	108.10104	215.41803	-466.80911	74.79948	82.48010	-471.72781	452.24048	121.12353	-475.60211	457.65292	159.76695	-479.47641	463.06537	134.65793	-448.87656	380.15149	121.90159	-459.42014	378.45432	132.33130	-472.28827	380.00464	152.81633	-462.51956	382.78430	167.11794	-450.64087	147.13321	206.49959	-426.24704	653.79248	174.66385	-440.46176	244.39392	10.15526	-581.02844	900.00989	5.31124	-418.50772	769.90497	-13.36398	-503.81555	1321.99341	-80.00000	0.00000	0.00000	-80.00000	0.00000	0.00000	-19.41317	-579.39111	1483.12292	-100.92135	-382.46097	457.05905	-227.65051	-533.03314	33.61766	-182.33131	-405.49036	71.96658	-11.43379	-291.36023	875.66187	114.35294	-380.53546	453.62250	111.51854	-521.44373	40.28654	184.68581	-383.32852	69.88633	-13.29567	-423.98218	1327.15381	200.00000	0.00000	0.00000	0.00000	0.00000	80.00000	0.00000	0.00000	80.00000	-18.25953	-527.24316	1583.51843	-95.80254	-461.30954	538.03247	-147.65051	-533.03314	113.61766	-141.28978	-476.21899	150.15259	-12.81532	-364.72263	961.77838	118.51154	-456.28397	537.55621	191.51854	-521.44373	120.28654	165.73730	-462.33490	148.61971	-16.18467	-508.97037	1401.77734	0.00000	200.00000	0.00000	0.00000	80.00000	0.00000	0.00000	80.00000	0.00000	-96.49709	-499.94241	1506.48889	-17.12952	-458.47971	456.77643	-147.65051	-453.03314	33.61766	-79.24309	-450.31116	59.16363	73.16747	-365.41544	888.24957	202.13164	-451.47803	461.49979	191.51854	-441.44373	40.28654	255.61363	-470.83905	80.42934	66.58625	-504.06561	1324.80383	0.00000	0.00000	200.00000	-0.10099	0.10015	0.07719	0.06180	-0.06848	-0.00765	-247.65051	-533.03314	33.61766	-147.65051	-433.03314	33.61766	91.51854	-521.44373	40.28654	191.51854	-421.44373	40.28654 
11	0.050	-97.02103	-462.37296	458.03989	220.95895	-462.48792	449.24905	-97.16123	-144.40533	448.81006	-88.23055	-453.14279	775.88593	-156.23979	-481.20688	71.60121	192.98259	-481.84033	25.55753	-164.75209	-124.01379	2.12487	-109.42441	-411.21405	425.71368	-6.42191	-370.92047	882.28894	231.79242	-370.97342	881.65228	-6.37931	-172.40863	881.72192	-5.89121	-370.35355	1080.80005	122.65078	-459.99619	457.71906	456.63995	-459.99191	457.80099	122.64649	-126.00702	457.81018	122.56885	-460.08731	791.70825	172.91919	-462.55844	68.82920	533.76746	-462.51077	121.45871	165.99615	-101.01834	115.96858	120.74698	-510.20346	426.58517	-51.13595	-419.28079	1531.69617	26.63843	-419.52295	1535.82715	-82.23997	-582.95074	1481.84814	40.56318	-590.81519	1479.61646	-14.40796	-574.49316	1345.75293	-7.61699	-566.26233	1081.38135	-12.29761	-433.13553	1298.24902	-13.10002	-360.03168	1196.23755	132.52263	-560.99023	1258.01111	-160.70613	-381.62582	870.71045	147.86232	-360.21512	893.86731	-37.10210	-579.16919	898.57208	57.41621	-582.89294	901.45007	121.65370	-483.90042	1326.05591	257.73334	-431.02762	1310.86853	381.78799	-372.47766	1277.25012	356.92294	-288.99014	1230.96069	484.31708	-306.89682	1265.57776	568.39545	-243.59962	1348.77966	577.32471	-228.82376	1277.63171	624.38422	-235.35059	1314.67725	-165.11671	-481.63474	1312.79663	-292.91080	-397.39340	1275.24585	-365.14117	-309.07098	1242.06970	-335.26605	-254.27364	1213.84839	-462.78436	-238.27629	1250.66016	-549.21259	-138.08891	1322.90735	-557.98468	-150.09181	1250.98071	-605.28973	-128.76303	1289.13867	230.88976	-440.28223	744.56561	203.31590	-459.17020	562.02032	185.49557	-379.29733	654.77563	215.66525	-450.30127	655.97400	200.49210	-451.40451	465.59872	44.80946	-468.58786	449.83932	138.72461	-427.30530	332.74588	166.02426	-430.28601	149.09146	219.26532	-463.73468	251.37360	154.79433	-434.98764	240.73851	216.41463	-466.92511	70.21737	137.15146	-458.97290	68.52415	191.32330	-521.17828	40.19877	164.61226	-365.17032	45.98021	220.18387	-387.83044	37.11185	175.72754	-306.85229	27.64366	-200.47429	-413.21332	759.13440	-174.49786	-425.70929	570.84338	-145.10966	-355.76352	669.83594	-187.80193	-415.94144	665.30414	-177.14909	-466.18860	466.24066	-16.89296	-458.55728	449.83905	-123.54559	-430.17163	347.38004	-140.49821	-441.29480	166.06255	-193.99327	-479.02701	265.87201	-130.88957	-444.50159	256.44113	-188.74074	-494.18283	71.32294	-116.55499	-465.34747	70.71737	-147.59219	-532.91846	33.59944	-150.35394	-377.97699	51.10543	-204.31340	-404.17776	33.94970	-159.30894	-321.38351	25.09678	19.35046	-613.11523	762.80042	-152.64786	-479.76514	71.02016	-92.47969	-451.83710	775.99805	-86.90824	-461.40704	496.05280	-95.97283	-471.40204	496.32251	-105.96935	-462.33517	496.35580	-97.79762	-446.48807	457.84283	-71.60622	-461.13544	457.63586	-95.07968	-493.80817	483.87686	-119.25898	-463.45575	458.39334	-89.08925	-458.12003	769.66565	-91.85842	-464.54501	776.15570	-95.24887	-458.26212	782.48810	-105.97317	-449.82251	734.81586	-95.97666	-458.88940	734.78253	-105.04126	-468.88437	735.05225	-124.22868	-459.98883	757.49963	-96.90475	-452.34018	496.08609	-123.17403	-319.26849	17.25470	-211.67648	-382.99051	-13.32424	-154.58218	-547.32483	-17.76420	-111.06011	-538.97540	-5.43065	-155.89076	-553.55487	76.85332	-165.31297	-508.61914	79.68178	-92.16906	-458.19107	776.07684	-118.19515	-505.85480	938.44098	-72.00607	-467.12152	806.48627	-165.98502	-420.72366	873.33527	-67.53294	-464.21756	744.19617	-97.02103	-462.37292	458.03986	-27.94572	-643.53491	901.82062	-109.74514	-433.64505	450.66177	-130.74670	-471.96161	146.68091	-137.16815	-487.19012	148.28822	-163.07408	-484.93692	151.91046	-161.59964	-441.68124	110.17502	-114.50346	-464.65247	80.69033	-139.82794	-496.19827	109.49567	-188.56718	-494.18216	76.83076	-55.29592	-462.49380	452.04810	-91.21524	-476.91083	457.85870	-127.13456	-491.32782	463.66931	-112.50073	-454.94797	380.77179	-97.37060	-461.52628	378.89273	-103.79205	-476.75479	380.50006	-126.10606	-473.05988	383.54123	-145.87683	-465.38330	148.55997	-173.36061	-398.22870	666.60455	-152.67903	-450.16449	259.77155	24.00000	2.00000	2006.00000	1.86758	-475.97577	891.14996	6.57285	-451.33963	783.48706	1.86758	-475.97577	891.14996	0.00000	0.00000	0.00000	0.00000	0.00000	0.00000	-16.54358	-503.14243	1507.24695	-97.02103	-462.37292	458.03986	-147.59219	-532.91846	33.59944	-152.64786	-479.76514	71.02016	-6.42191	-370.92047	882.28888	122.65077	-459.99619	457.71902	191.32330	-521.17828	40.19877	176.78305	-462.94901	69.37076	-13.35279	-503.81433	1322.00098	0.00000	0.00000	0.00000	-6.42191	-370.92047	882.28888	176.78305	-462.94901	69.37076	104.61742	-437.85388	790.55219	110.61910	-459.20554	497.23245	121.61644	-468.08670	498.21805	130.52180	-457.06491	498.16840	120.90746	-443.41040	456.85632	96.11385	-462.85037	456.47110	124.75053	-491.92712	486.09869	145.87059	-457.49878	458.81097	102.34436	-445.15515	784.07770	106.01208	-451.12253	791.24231	101.65092	-444.53482	797.40485	119.79091	-435.12567	747.69043	110.88555	-446.14749	747.74005	121.88289	-455.02863	748.72565	139.52608	-441.85098	772.46649	119.52447	-448.18375	497.18280	128.94841	-318.18890	5.45709	230.87772	-364.79739	-10.86205	206.86948	-537.14923	-8.93698	161.41570	-536.87732	-1.87440	198.26169	-537.96466	85.49946	198.60338	-491.96793	85.92779	105.31475	-444.48822	790.89728	113.23119	-489.79678	955.80865	82.27815	-456.41617	818.06470	158.01186	-398.24243	897.64996	86.75128	-453.51221	755.77460	122.65077	-459.99619	457.71902	49.19640	-638.18225	907.60980	126.86060	-428.84302	450.15063	154.36497	-461.18674	145.41574	164.78391	-474.06302	146.96594	189.13982	-464.70187	150.28976	175.27879	-423.63843	108.45381	135.97903	-458.92520	79.48911	169.41533	-482.16138	108.08147	215.42177	-466.85471	74.78635	82.44846	-471.69659	452.20416	121.08719	-475.60229	457.61975	159.72591	-479.50800	463.03534	134.64992	-448.88217	380.12384	121.88561	-459.41504	378.42468	132.30453	-472.29132	379.97491	152.79659	-462.53961	382.75717	167.12929	-450.65387	147.11488	206.56708	-426.24991	653.78717	174.67140	-440.44199	244.40364	10.15706	-581.03107	900.01111	5.31378	-418.49908	769.90015	-13.35279	-503.81433	1322.00098	-80.00000	0.00000	0.00000	-80.00000	0.00000	0.00000	-19.39605	-579.36890	1483.13501	-100.92718	-382.47452	457.04886	-227.59219	-532.91846	33.59944	-182.31587	-405.47549	71.94588	-11.44681	-291.35257	875.67841	114.29930	-380.54071	453.58618	111.32330	-521.17828	40.19877	184.75821	-383.34912	69.87719	-13.28454	-423.98102	1327.16162	200.00000	0.00000	0.00000	0.00000	0.00000	80.00000	0.00000	0.00000	80.00000	-18.23843	-527.20673	1583.52307	-95.80080	-461.32123	538.02362	-147.59219	-532.91846	113.59944	-141.27757	-476.21014	150.12817	-12.81852	-364.71942	961.79126	118.49830	-456.28159	537.52478	191.32330	-521.17828	120.19878	165.73886	-462.34656	148.60246	-16.17126	-508.96942	1401.78491	0.00000	200.00000	0.00000	0.00000	80.00000	0.00000	0.00000	80.00000	0.00000	-96.47474	-499.91190	1506.49011	-17.12576	-458.48270	456.76984	-147.59219	-452.91846	33.59944	-79.22767	-450.29636	59.14308	73.16348	-365.39825	888.26147	202.10522	-451.45047	461.45544	191.32330	-441.17828	40.19877	255.61465	-470.91751	80.41977	66.59752	-504.06424	1324.80920	0.00000	0.00000	200.00000	-0.10099	0.10015	0.07719	0.06180	-0.06848	-0.00765	-247.59219	-532.91846	33.59944	-147.59219	-432.91846	33.59944	91.32330	-521.17828	40.19877	191.32330	-421.17828	40.19877 
